PathFileType	4	(X/Y/Z)	C:\Users\WrightLab\Desktop\Jo\P5V26.trc
DataRate	CameraRate	NumFrames	NumMarkers	Units	OrigDataRate	OrigDataStartFrame	OrigNumFrames
100.00	100.00	       21	19	mm	100.00	185	       739
Frame#	Time	Headset_Front			Headset_Back			Headset_Left			Headset_Right			Left_Shoulder			Right_Shoulder			Sternum			C7			Left Elbow			Right Elbow			Left Wrist			Right Wrist			Left ASIS			Right ASIS			S2			Left Knee			Right Knee			Left Ankle			Right Ankle			
		X1	Y1	Z1	X2	Y2	Z2	X3	Y3	Z3	X4	Y4	Z4	X5	Y5	Z5	X6	Y6	Z6	X7	Y7	Z7	X8	Y8	Z8	X9	Y9	Z9	X10	Y10	Z10	X11	Y11	Z11	X12	Y12	Z12	X13	Y13	Z13	X14	Y14	Z14	X15	Y15	Z15	X16	Y16	Z16	X17	Y17	Z17	X18	Y18	Z18	X19	Y19	Z19	

185	1.840										-369.65073	1582.97046	-1059.65454																-555.41553	1166.71924	-1176.66113	82.43594	968.95935	-1189.29932				-94.38480	914.71100	-1114.69788	-369.01459	936.80243	-1080.65869	-523.69250	1040.77197	-970.40021	-104.42947	464.23837	-1173.35815	-409.45956	480.95087	-1125.03870				-381.38489	71.98099	-1202.84607	
186	1.850										-371.32880	1583.06702	-1057.09961																-557.40015	1166.60254	-1173.67834	80.73923	968.28912	-1187.33472				-97.85964	915.22272	-1114.79053	-371.10620	935.79608	-1078.61816	-524.79297	1041.18799	-967.15680	-107.80804	463.41495	-1170.14221	-411.84558	480.71292	-1123.50122				-381.63892	71.51080	-1203.97424	
187	1.860										-373.10544	1583.04834	-1054.89026	-236.60092	1306.91541	-1118.50867													-559.09900	1166.32288	-1169.73828	78.54076	969.57526	-1181.87305				-99.96198	914.91510	-1110.00354	-372.23187	937.09418	-1073.66711	-526.62482	1041.08154	-963.75201	-110.36079	463.46890	-1168.00049	-414.55807	480.57007	-1120.63586				-381.78351	71.23463	-1204.61438	
188	1.870										-374.71445	1582.93042	-1051.93030	-238.83844	1306.67053	-1116.21655													-561.03186	1166.38330	-1166.40271	76.03931	969.62878	-1176.71338				-101.78772	915.07184	-1106.72449	-374.95609	937.19891	-1071.50806	-527.12250	1041.16577	-960.85419	-113.11701	463.53683	-1163.94678	-418.74918	480.20428	-1119.60657				-381.97330	70.89001	-1205.45886	
189	1.880										-376.39270	1582.81482	-1048.98547	-241.05486	1306.71423	-1113.24072													-562.75372	1167.03882	-1164.80615	75.51420	968.35834	-1180.12732				-103.96260	914.42010	-1103.67200	-377.25452	936.77698	-1069.20837	-529.22620	1041.12317	-957.75098	-114.87981	464.26074	-1161.79797	-421.74051	480.48431	-1117.74036				-383.64655	72.94309	-1199.08191	
190	1.890										-378.04764	1582.96057	-1046.42664	-241.79391	1306.33923	-1110.02991													-564.49780	1166.60205	-1161.66455	72.39859	968.39740	-1167.28503				-107.27600	914.79272	-1100.91333	-380.64917	936.76959	-1068.21106	-530.49292	1041.51489	-955.54425	-118.28696	463.76126	-1158.71484	-423.91370	479.68869	-1115.25024				-383.79672	72.64287	-1199.74182	
191	1.900										-379.75699	1583.00769	-1043.98926	-245.04890	1307.04590	-1107.66809													-566.83679	1166.63611	-1158.44043	70.82037	968.49811	-1165.71399				-110.52718	913.66089	-1099.30884	-382.82260	937.41150	-1065.23584	-532.62830	1042.08130	-952.08252	-119.70921	463.88153	-1154.87268	-427.65158	480.42371	-1112.86121				-383.90771	72.39387	-1200.22302	
192	1.910										-381.38800	1582.81201	-1040.56738	-246.06261	1306.25244	-1105.02881													-568.99628	1166.89221	-1154.59167	65.72395	967.65881	-1165.62036				-112.91827	914.53040	-1096.07520	-385.38370	936.38843	-1062.48279	-534.52661	1041.93311	-948.90814	-122.62787	463.20023	-1152.69324	-430.25803	478.40366	-1110.25476				-384.02792	72.16990	-1200.75525	
193	1.920										-383.02310	1582.72388	-1037.39172	-248.50116	1305.94397	-1102.50085													-571.09430	1167.38159	-1151.71729	65.77981	967.28418	-1162.27332				-115.84890	914.08429	-1092.53613	-386.72336	936.92505	-1056.70496	-535.99963	1041.97070	-946.79956	-124.97292	463.24432	-1149.57056	-433.20657	478.85410	-1107.40710				-384.11984	71.98192	-1201.15808	
194	1.930										-384.78552	1582.25781	-1034.07947	-250.47147	1306.06836	-1099.52271													-572.68774	1167.76697	-1148.91235	64.58604	966.92603	-1166.77588				-118.48714	913.80963	-1089.74365	-390.70990	937.40759	-1055.86536	-537.20782	1042.46094	-942.97546	-126.49796	464.03928	-1145.76318	-435.72137	478.28656	-1104.55176				-384.96884	73.17306	-1198.03918	
195	1.940										-386.34222	1582.52380	-1031.40344	-253.77196	1307.09778	-1096.69653													-574.64026	1167.82336	-1146.17053	61.74834	966.87469	-1157.66785				-122.68358	913.41650	-1086.60498	-393.23056	936.76599	-1054.94299	-539.48438	1042.39587	-939.61212	-129.30423	464.60608	-1141.48096	-440.12924	479.04391	-1103.12793				-385.06995	72.96300	-1198.48083	
196	1.950										-388.03870	1582.18774	-1027.81201	-256.10928	1306.09827	-1094.21521													-576.61200	1167.70166	-1142.78784	60.16161	967.17249	-1153.57922				-125.97940	913.24329	-1082.95984	-395.14914	936.48822	-1049.79175	-540.93060	1042.23767	-937.67737	-130.82622	464.50610	-1136.77417	-441.94382	477.78998	-1100.56995				-385.11014	72.88578	-1198.65808	
197	1.960										-389.68167	1582.35352	-1025.26709	-257.26114	1305.85291	-1091.14404													-578.36151	1167.52686	-1139.12573	57.98830	965.86823	-1152.99646				-128.54781	912.73401	-1081.78894	-397.52713	936.87592	-1044.87488	-541.85004	1041.87598	-934.04047	-131.52444	465.02823	-1131.52710	-444.68683	477.22183	-1097.32373				-385.55057	72.45717	-1196.38928	
198	1.970										-391.21890	1582.10449	-1021.36908	-258.36288	1304.72668	-1088.39563													-580.76678	1167.69897	-1135.67639	56.07496	963.60016	-1160.31006				-131.18156	912.12561	-1078.26416	-399.79813	936.04175	-1044.41870	-543.15765	1041.81323	-930.60077	-131.78116	466.34244	-1125.20276	-447.13562	476.78204	-1095.40869				-385.61536	72.31530	-1196.67041	
199	1.980										-392.91364	1581.84509	-1018.19946	-261.30243	1304.78687	-1085.77747													-582.74841	1167.70361	-1132.64868	53.20891	965.95306	-1148.69727				-134.67711	911.96661	-1075.97473	-403.03796	935.15393	-1042.62244	-544.84406	1042.41809	-927.70905	-130.88681	467.79547	-1118.09814	-451.52081	477.58780	-1092.82288				-385.68143	72.13572	-1196.94885	
200	1.990										-394.58701	1581.34937	-1014.88489	-264.04517	1305.18311	-1083.03613													-584.91315	1167.48828	-1129.60571	51.61625	963.80261	-1152.37061				-137.29848	911.17804	-1074.17944	-405.30374	935.89209	-1040.42188	-547.06519	1040.97302	-924.08423	-130.68718	467.47311	-1112.70471	-453.82443	476.52426	-1089.62915				-386.18661	71.56221	-1194.95935	
201	2.000										-396.13818	1580.77429	-1010.68530	-266.24670	1304.31592	-1079.94519													-586.74994	1167.50867	-1126.03821	49.78886	964.35638	-1148.61572				-139.64027	911.33478	-1071.74841	-407.79858	934.76746	-1039.45752	-548.61523	1040.85828	-920.59735	-129.38148	466.78079	-1105.41931	-456.38068	475.74637	-1088.20703	-122.27807	117.85816	-1393.26099	-385.98724	70.07481	-1196.04504	
202	2.010										-397.64087	1580.38965	-1006.99860	-267.57089	1302.87512	-1076.84619													-588.74182	1167.05200	-1121.66882	47.74531	963.11487	-1140.92419				-141.05058	910.04779	-1069.72583	-409.15735	934.85413	-1036.81421	-550.58319	1040.84412	-917.95441	-129.31015	466.05923	-1097.81177	-458.73090	474.37119	-1085.98779	-122.88364	123.38330	-1387.01526	-386.05487	69.84372	-1196.31934	
203	2.020										-399.17264	1579.68616	-1002.75433	-268.84747	1302.33582	-1074.32300													-591.44098	1167.19763	-1118.82349	45.23349	962.13806	-1142.43396				-143.98030	908.80847	-1068.32727	-412.50357	934.68970	-1033.85400	-551.70099	1040.28113	-914.24512	-128.85809	463.71313	-1088.98743	-463.10995	474.64499	-1083.65906	-122.16953	129.28918	-1379.99487	-386.15973	69.50541	-1196.74927	
204	2.030										-400.77127	1579.28723	-999.96033	-271.21616	1302.00122	-1071.03943													-592.91547	1166.08069	-1115.04907	43.59765	960.88629	-1144.02625				-146.25719	908.32996	-1066.79065	-414.38733	933.49518	-1032.83630	-553.41486	1039.49170	-910.41058	-128.66809	464.23941	-1078.42322	-466.10107	474.61124	-1081.67090	-122.33928	135.18315	-1371.35889	-386.26547	69.17924	-1197.18591	
205	2.040										-402.31784	1578.30396	-995.27155	-271.98776	1301.60840	-1068.27466													-594.91339	1166.36792	-1112.27844	40.61586	962.57556	-1132.76245				-147.54611	906.81494	-1064.55786	-416.35660	932.43146	-1029.01794	-554.62671	1039.06006	-908.53040	-128.73000	464.01901	-1067.00513	-468.56070	473.58911	-1080.09680	-123.72461	143.03181	-1364.39612	-386.34814	68.94922	-1197.53320	
